<svg width="642" height="393" viewBox="0 0 642 393" fill="none" xmlns="http://www.w3.org/2000/svg"><g id="home-scrim-deploy-website" opacity="0.9" filter="url(#home-scrim-deploy-filter0_d)" data-animate-on-scroll-element=""><path d="M585 31C585 26.5817 581.418 23 577 23H169C164.582 23 161 26.5817 161 31V279C161 283.418 164.582 287 169 287H577C581.418 287 585 283.418 585 279V31Z" fill="white"/> <path d="M373 23H577C581.418 23 585 26.5817 585 31V279C585 283.418 581.418 287 577 287H373V23Z" fill="#30C8C9"/> <g id="coffee-bean-svgrepo-com" transform="translate(184, 46) scale(1.2)" fill="#644744" fill-rule="nonzero" stroke="#644744" stroke-width="0.5"><path d="M10.5411924,3.8105125 C8.43319007,1.39458724 4.18585628,-0.555254511 1.06413307,0.14385887 C0.858255985,0.186660274 0.775457591,0.362621603 0.791122152,0.536205075 C-1.15352119,1.67044229 0.996999238,5.60103791 1.81826979,6.74954226 C3.43395735,9.03466167 6.30954555,11.5813452 9.20077593,10.8822556 C10.5434526,10.5612451 11.514633,9.22251228 11.8861292,7.88377947 C12.30905,6.37146319 11.4855417,4.88768117 10.5411924,3.8105125 Z M8.80242615,10.1855439 C6.51542264,10.7395843 4.09186891,8.38075133 2.72233873,6.73765298 C1.35280855,5.0636425 0.298807381,3.04246508 1.1335047,0.959463406 C3.00877642,4.5690485 6.80407574,7.36302905 10.4181137,8.61375742 C10.8567438,8.7588304 11.0491717,8.03118275 10.6105864,7.87189019 C7.13303152,6.62113804 3.72263283,4.1172559 1.6549108,0.842948472 C4.14781377,0.521937941 6.99654844,1.93438428 8.95461855,3.3896558 C10.077969,4.23379461 11.158846,5.47027962 11.2550712,6.99924089 C11.322205,8.49726626 10.1026071,9.86453334 8.80242615,10.1855439 Z"/></g> <path fill-rule="evenodd" clip-rule="evenodd" d="M507 125H435V127H507V125ZM515 131H435V133H515V131ZM435 137H505V139H435V137ZM513 143H435V145H513V143ZM435 149H523V151H435V149ZM511 155H435V157H511V155Z" fill="#F7F8F8"/> <text fill="white" xml:space="preserve" font-family="Mulish, sans-serif" font-size="14" font-weight="bold" letter-spacing="0px" style="white-space:pre;"><tspan x="435" y="179.17">Add to cart</tspan></text> <path fill-rule="evenodd" clip-rule="evenodd" d="M185 136H247V138H185V136ZM185 142H253V144H185V142ZM245 148H185V150H245V148Z" fill="#E9EBEB"/> <text fill="#0E1E25" xml:space="preserve" font-family="Mulish, sans-serif" font-size="20" letter-spacing="0px" style="white-space:pre;"><tspan x="185" y="120.957">Light Roast</tspan></text></g> <g id="home-scrim-deploy-github-notification" filter="url(#home-scrim-deploy-filter1_d)" data-animate-on-scroll-element="" style="--animation-on-scroll-delay:300ms;"><rect x="57" y="193" width="424" height="160" rx="8" fill="white"/> <path opacity="0.5" d="M57 201C57 196.582 60.5817 193 65 193H473C477.418 193 481 196.582 481 201V237H57V201Z" fill="#E0E0E0"/> <rect x="213.602" y="277.285" width="51" height="18" rx="6" fill="#E9EBEB"/> <text fill="#2768CF" xml:space="preserve" font-family="SFMono-Regular,Consolas,Liberation Mono,Menlo,monospace" font-size="11" font-weight="bold" letter-spacing="0em" style="white-space:pre;"><tspan x="215.602" y="290.195">bb1147f</tspan></text> <text fill="#2768CF" xml:space="preserve" font-family="Mulish, sans-serif" font-size="16" letter-spacing="0px" style="white-space:pre;"><tspan x="81" y="319.766">https://newstore-branch--www.jamjava.com</tspan></text> <text fill="#4F4F4F" xml:space="preserve" font-family="Mulish, sans-serif" font-size="16" letter-spacing="0px" style="white-space:pre;"><tspan x="81" y="263.766">Deploy preview for www ready!</tspan><tspan x="81" y="291.766">Built with commit</tspan></text> <text fill="#151A1E" xml:space="preserve" font-family="Mulish, sans-serif" font-size="16" font-weight="bold" letter-spacing="0px" style="white-space:pre;"><tspan x="81" y="219.766">netlify</tspan></text> <text id="bot" fill="#151A1E" xml:space="preserve" font-family="SFMono-Regular,Consolas,Liberation Mono,Menlo,monospace" font-size="11" font-weight="bold" letter-spacing="0.12em" style="white-space:pre;"><tspan x="138" y="218.91">BOT</tspan></text> <rect x="134.5" y="206" width="30" height="18" rx="5.5" stroke="#A3A9AC"/> <text id="commented 3 hours ago" fill="#151A1E" xml:space="preserve" font-family="Mulish, sans-serif" font-size="16" letter-spacing="0px" style="white-space:pre;"><tspan x="169" y="219.766">commented 3 hours ago</tspan></text></g> <g style="display:none;"><rect id="Rectangle 659" x="268" y="343" width="2" height="34" fill="#FF1154"/> <circle id="Ellipse 1055" cx="269" cy="343" r="2" fill="#FF1154"/> <rect id="Rectangle 659_2" x="266" width="2" height="34" fill="#FF1154"/> <circle id="Ellipse 1055_2" cx="267" cy="34" r="2" fill="#FF1154"/></g> <defs><filter id="home-scrim-deploy-filter0_d" filterUnits="userSpaceOnUse" color-interpolation-filters="sRGB"><feFlood flood-opacity="0" result="BackgroundImageFix"/> <feColorMatrix in="SourceAlpha" type="matrix" values="0 0 0 0 0 0 0 0 0 0 0 0 0 0 0 0 0 0 127 0"/> <feOffset dy="2"/> <feGaussianBlur stdDeviation="2"/> <feColorMatrix type="matrix" values="0 0 0 0 0.054902 0 0 0 0 0.117647 0 0 0 0 0.145098 0 0 0 0.12 0"/> <feBlend mode="normal" in2="BackgroundImageFix" result="effect1_dropShadow"/> <feBlend mode="normal" in="SourceGraphic" in2="effect1_dropShadow" result="shape"/></filter> <filter id="home-scrim-deploy-filter1_d" filterUnits="userSpaceOnUse" color-interpolation-filters="sRGB"><feFlood flood-opacity="0" result="BackgroundImageFix"/> <feColorMatrix in="SourceAlpha" type="matrix" values="0 0 0 0 0 0 0 0 0 0 0 0 0 0 0 0 0 0 127 0"/> <feOffset dy="16"/> <feGaussianBlur stdDeviation="12"/> <feColorMatrix type="matrix" values="0 0 0 0 0.054902 0 0 0 0 0.117647 0 0 0 0 0.145098 0 0 0 0.08 0"/> <feBlend mode="normal" in2="BackgroundImageFix" result="effect1_dropShadow"/> <feBlend mode="normal" in="SourceGraphic" in2="effect1_dropShadow" result="shape"/></filter></defs></svg>